<svg version="1.1" id="Layer_1" xmlns="http://www.w3.org/2000/svg" xmlns:xlink="http://www.w3.org/1999/xlink" x="0px" y="0px"
	 width="100%" viewBox="0 0 736 608" enable-background="new 0 0 736 608" xml:space="preserve">
<path fill="#000000" opacity="1.000000" stroke="none" 
	d="
M368.540710,427.315918 
	C362.887360,402.566162 361.764252,377.834595 361.574493,352.957611 
	C361.228729,307.623230 365.907898,262.839569 376.163910,218.721619 
	C382.362488,192.057129 390.491821,165.956619 405.442596,142.598862 
	C412.240875,131.977859 420.140961,122.314720 431.669098,116.434387 
	C442.091370,111.118141 452.716309,109.395538 463.768890,114.917549 
	C474.411926,120.234909 478.478119,131.725662 472.999481,142.307892 
	C467.781311,152.387024 458.714172,158.915634 450.301941,165.927002 
	C431.046417,181.976028 412.466949,198.587357 399.117676,220.207245 
	C383.673645,245.219757 375.607574,272.638489 372.358429,301.623871 
	C370.369293,319.368835 370.185516,337.173279 371.275543,354.991821 
	C371.542358,359.353577 372.611511,363.540741 374.164246,367.605347 
	C374.902405,369.537506 376.001495,371.319275 378.284485,371.484985 
	C380.424255,371.640259 381.501099,369.869843 382.462250,368.345764 
	C387.484070,360.382751 390.356873,351.463501 393.485321,342.693970 
	C403.782013,313.830872 413.324829,284.684631 425.792694,256.641754 
	C437.600464,230.083496 451.067413,204.463684 469.314728,181.642578 
	C484.276123,162.931046 501.579681,146.905014 523.786072,137.217789 
	C541.764587,129.374908 560.590393,125.038727 580.265320,129.279739 
	C607.559204,135.163040 622.911865,157.677017 619.994507,185.383392 
	C617.060791,213.245178 605.410706,236.691422 585.963318,256.464294 
	C579.179749,263.361267 571.601196,269.377197 563.432068,274.610138 
	C562.197937,275.400696 561.028870,276.292755 559.577148,277.315857 
	C562.297180,280.739990 566.034302,282.319061 569.176086,284.606110 
	C593.667114,302.434601 610.094482,325.487427 614.627502,355.888367 
	C616.784302,370.353180 615.067749,384.795105 611.962280,399.052917 
	C610.368286,406.370972 609.254211,413.814484 607.275940,421.023682 
	C602.721863,437.619690 607.835083,452.560272 614.397522,467.375305 
	C615.674255,470.257568 616.828674,473.238586 617.615234,476.283630 
	C619.047913,481.830658 617.193542,485.235901 611.752380,487.229492 
	C609.426392,488.081696 606.937134,488.882294 604.495972,488.968811 
	C544.644409,491.090515 493.117889,472.908447 454.445923,425.489655 
	C434.912048,401.537659 424.856171,373.576599 424.886444,342.382996 
	C424.892761,335.877167 425.585480,329.389618 428.583282,323.424744 
	C431.423096,317.774109 436.278625,315.992554 441.872223,318.935760 
	C450.026154,323.226166 454.772308,330.283844 457.007629,339.078522 
	C457.602142,341.417572 457.017944,343.752350 455.728180,345.794617 
	C454.753082,347.338623 453.661865,348.827667 452.479156,350.219452 
	C436.187256,369.391449 440.715607,396.164612 462.257385,409.607422 
	C476.078949,418.232483 491.167389,418.472168 506.264191,416.106659 
	C542.045715,410.500153 560.832520,384.086304 562.735718,349.399902 
	C563.619751,333.289581 562.145569,317.426208 555.168335,302.525330 
	C554.250671,300.565430 553.269226,298.627808 552.194275,296.750336 
	C545.806091,285.593719 545.000183,285.211517 533.009399,289.305969 
	C508.840118,297.559082 484.394073,298.256256 459.661285,292.297760 
	C455.092346,291.197021 450.728149,289.519257 446.762390,287.019104 
	C439.323883,282.329620 439.226166,275.567688 446.530090,270.767853 
	C450.014404,268.478149 453.812286,266.767365 457.866516,265.634552 
	C482.712952,258.692078 507.479858,258.534088 532.201477,266.293274 
	C539.486023,268.579620 540.537109,268.140839 543.119507,260.787231 
	C549.052490,243.892487 549.593933,227.562302 535.818970,213.870621 
	C520.162598,198.308914 494.954559,195.365906 474.603241,206.192596 
	C457.984619,215.033539 448.276276,229.745026 440.661560,246.210754 
	C430.428589,268.338226 425.421509,291.929199 421.257080,315.756226 
	C415.521271,348.574280 413.065918,381.824738 408.169128,414.752716 
	C406.673065,424.812683 404.895264,434.835632 401.200073,444.351013 
	C398.901611,450.269653 396.390961,456.778503 388.722961,457.025085 
	C381.235809,457.265900 377.940155,451.251282 374.962280,445.577850 
	C372.008087,439.949524 370.204315,433.861359 368.540710,427.315918 
M501.084686,286.701996 
	C511.341278,285.252411 521.692322,284.070648 530.448242,276.764648 
	C524.675232,272.589813 518.534851,271.083160 512.367310,269.987061 
	C502.554932,268.243225 492.645599,266.646545 482.902374,270.426819 
	C479.707458,271.666382 476.649017,273.578430 476.555634,277.353668 
	C476.461914,281.142792 479.510834,283.020874 482.577454,284.564514 
	C488.182281,287.385803 494.197266,286.867676 501.084686,286.701996 
z"/>
<path fill="#000000" opacity="1.000000" stroke="none" 
	d="
M334.674194,452.713745 
	C326.904449,459.507111 320.494202,458.517365 315.721283,449.815338 
	C309.590942,438.638428 307.775085,426.169312 305.975800,413.843964 
	C300.806824,378.435547 298.240295,342.666199 291.622162,307.459717 
	C286.873657,282.199097 280.979248,257.225433 267.737335,234.748962 
	C257.636475,217.604050 244.277512,204.307388 223.744766,200.830536 
	C204.501846,197.572067 187.751068,202.266418 174.872574,217.829895 
	C163.387070,231.709900 166.971848,254.464355 173.436890,265.603302 
	C174.865509,268.064697 176.743713,267.859528 179.004517,267.100739 
	C195.653870,261.512756 212.794037,259.530273 230.244492,260.895874 
	C242.387650,261.846130 254.411255,263.739380 265.443115,269.455231 
	C269.418335,271.514832 273.281372,274.046692 272.992371,279.069427 
	C272.714813,283.893524 268.938293,286.530609 264.915161,288.452118 
	C253.241852,294.027466 240.608566,295.267822 227.970810,296.096741 
	C209.704788,297.294800 192.150040,293.727112 175.227753,287.026581 
	C172.044205,285.766052 170.092819,286.171387 167.900803,288.715332 
	C158.987000,299.060089 154.622696,311.374268 152.651749,324.550323 
	C150.055710,341.905060 151.014435,359.065247 157.012344,375.762177 
	C165.236237,398.655640 187.634399,415.504547 211.947327,416.700684 
	C221.237091,417.157715 230.503052,417.635406 239.723190,414.989044 
	C261.130127,408.844849 274.339508,389.657043 271.907532,367.631836 
	C271.226227,361.461517 267.639557,356.901978 263.768250,352.489899 
	C259.893005,348.073364 255.494995,343.785522 257.839752,337.110779 
	C260.743042,328.846100 265.302795,321.770416 273.816711,318.299988 
	C278.255432,316.490692 282.264221,318.154572 284.991547,322.265564 
	C288.476227,327.518127 288.985657,333.583099 289.146423,339.523315 
	C289.964752,369.759399 280.960571,397.065063 263.069366,421.249390 
	C234.546936,459.804474 195.340454,480.180481 148.569397,487.398682 
	C136.646469,489.238770 124.679878,489.776001 112.699265,489.173309 
	C93.348969,488.199890 93.863609,480.575043 99.030357,468.825043 
	C102.379173,461.209290 105.691902,453.566498 107.633774,445.415955 
	C110.454384,433.577057 106.898384,422.298859 104.701607,410.906555 
	C102.277267,398.334076 99.064171,385.917877 98.762726,372.981720 
	C98.057007,342.696960 109.349548,317.556610 130.696030,296.488129 
	C136.788940,290.474548 143.558151,285.419189 150.652008,280.720001 
	C151.867874,279.914551 153.439407,279.491669 154.076416,277.752258 
	C153.608093,275.565277 151.408447,275.079742 149.851624,274.030853 
	C124.996246,257.284729 106.799225,235.403534 98.213257,206.337753 
	C94.364754,193.309570 92.331749,179.894928 95.302155,166.394073 
	C100.271217,143.809036 119.681465,128.490189 143.917358,127.845787 
	C172.567398,127.084038 197.339142,137.248108 219.172012,155.285660 
	C242.186203,174.299133 258.632202,198.457993 272.690430,224.377914 
	C292.381531,260.683380 305.781647,299.584229 319.247528,338.451355 
	C322.514618,347.881409 325.708527,357.375885 330.460144,366.205658 
	C331.674316,368.461945 332.802612,371.685516 335.919220,371.364441 
	C339.374084,371.008484 340.433716,367.670898 341.118988,364.740234 
	C342.103180,360.531128 343.262634,356.263245 343.444763,351.982056 
	C345.038422,314.521271 341.828125,277.770294 326.965546,242.755112 
	C314.801819,214.098175 295.050293,191.502106 271.245117,172.041031 
	C265.056641,166.981903 258.991486,161.764557 253.018555,156.452484 
	C250.292313,154.027847 247.730164,151.356201 245.437851,148.518494 
	C239.817703,141.561127 236.376297,133.914627 240.560410,125.002754 
	C244.860687,115.843430 253.004730,112.197495 262.471527,111.766678 
	C278.127563,111.054176 289.785767,119.149162 299.570740,130.301682 
	C313.223694,145.862701 321.433990,164.451431 328.031982,183.777451 
	C339.435547,217.179611 345.673859,251.671432 349.374207,286.700745 
	C351.896423,310.577484 353.385468,334.507782 352.871857,358.497009 
	C352.365814,382.134033 351.308075,405.784973 345.255035,428.837463 
	C343.054871,437.216522 340.617371,445.561951 334.674194,452.713745 
M236.026886,273.554779 
	C233.698593,271.268280 230.852051,269.912140 227.706253,269.316956 
	C213.700790,266.667175 200.314514,269.101166 187.342484,274.506927 
	C186.216110,274.976288 184.798309,275.526917 184.795975,277.469330 
	C185.443054,277.997223 186.123444,278.738586 186.957626,279.204834 
	C199.148499,286.018341 212.318542,287.748108 225.983795,286.342743 
	C229.263718,286.005432 232.455704,284.729218 235.012375,282.422546 
	C237.622498,280.067627 238.861237,277.399384 236.026886,273.554779 
z"/>
</svg>